<mxfile host="Electron" modified="2023-12-14T22:50:36.032Z" agent="Mozilla/5.0 (Macintosh; Intel Mac OS X 10_15_7) AppleWebKit/537.36 (KHTML, like Gecko) draw.io/22.1.2 Chrome/114.0.5735.289 Electron/25.9.4 Safari/537.36" etag="4YJ0X60lNtXFts1jmoUF" version="22.1.2" type="device">
  <diagram id="R2lEEEUBdFMjLlhIrx00" name="Page-1">
    <mxGraphModel dx="1592" dy="1132" grid="1" gridSize="10" guides="1" tooltips="1" connect="1" arrows="1" fold="1" page="1" pageScale="1" pageWidth="850" pageHeight="1100" background="none" math="0" shadow="0" extFonts="Permanent Marker^https://fonts.googleapis.com/css?family=Permanent+Marker">
      <root>
        <mxCell id="0" />
        <mxCell id="1" parent="0" />
        <mxCell id="ri0Ij2RGUE_Cn3Q0Ax71-106" value="" style="group;fontSize=12;" parent="1" vertex="1" connectable="0">
          <mxGeometry x="370" y="400" width="1060" height="70" as="geometry" />
        </mxCell>
        <mxCell id="ri0Ij2RGUE_Cn3Q0Ax71-99" value="" style="shape=table;startSize=0;container=1;collapsible=1;childLayout=tableLayout;fixedRows=1;rowLines=0;fontStyle=0;align=center;resizeLast=1;strokeColor=none;fillColor=none;collapsible=0;whiteSpace=wrap;html=1;fontSize=12;" parent="ri0Ij2RGUE_Cn3Q0Ax71-106" vertex="1">
          <mxGeometry x="970" width="90" height="40" as="geometry" />
        </mxCell>
        <mxCell id="ri0Ij2RGUE_Cn3Q0Ax71-100" value="" style="shape=tableRow;horizontal=0;startSize=0;swimlaneHead=0;swimlaneBody=0;fillColor=none;collapsible=0;dropTarget=0;points=[[0,0.5],[1,0.5]];portConstraint=eastwest;top=0;left=0;right=0;bottom=0;fontSize=12;" parent="ri0Ij2RGUE_Cn3Q0Ax71-99" vertex="1">
          <mxGeometry width="90" height="30" as="geometry" />
        </mxCell>
        <mxCell id="ri0Ij2RGUE_Cn3Q0Ax71-101" value="" style="shape=partialRectangle;connectable=0;fillColor=none;top=0;left=0;bottom=0;right=0;editable=1;overflow=hidden;fontSize=12;" parent="ri0Ij2RGUE_Cn3Q0Ax71-100" vertex="1">
          <mxGeometry width="30" height="30" as="geometry">
            <mxRectangle width="30" height="30" as="alternateBounds" />
          </mxGeometry>
        </mxCell>
        <mxCell id="ri0Ij2RGUE_Cn3Q0Ax71-102" value="EVENT" style="shape=partialRectangle;connectable=0;fillColor=none;top=0;left=0;bottom=0;right=0;align=left;spacingLeft=6;overflow=hidden;fontSize=12;" parent="ri0Ij2RGUE_Cn3Q0Ax71-100" vertex="1">
          <mxGeometry x="30" width="60" height="30" as="geometry">
            <mxRectangle width="60" height="30" as="alternateBounds" />
          </mxGeometry>
        </mxCell>
        <mxCell id="ri0Ij2RGUE_Cn3Q0Ax71-44" value="&lt;u&gt;&lt;b&gt;Event ID&lt;/b&gt;&lt;/u&gt;" style="whiteSpace=wrap;html=1;align=center;spacing=2;imageHeight=24;fillOpacity=100;fontSize=12;" parent="ri0Ij2RGUE_Cn3Q0Ax71-106" vertex="1">
          <mxGeometry y="30" width="92.53731343283583" height="40" as="geometry" />
        </mxCell>
        <mxCell id="ri0Ij2RGUE_Cn3Q0Ax71-45" value="Event Name" style="whiteSpace=wrap;html=1;spacing=2;imageHeight=24;fillOpacity=100;fontSize=12;container=0;" parent="ri0Ij2RGUE_Cn3Q0Ax71-106" vertex="1">
          <mxGeometry x="92.54000000000002" y="30" width="117.46" height="40" as="geometry" />
        </mxCell>
        <mxCell id="ri0Ij2RGUE_Cn3Q0Ax71-46" value="Description" style="whiteSpace=wrap;html=1;align=center;spacing=2;imageHeight=24;fillOpacity=100;fontSize=12;" parent="ri0Ij2RGUE_Cn3Q0Ax71-106" vertex="1">
          <mxGeometry x="210" y="30" width="100" height="40" as="geometry" />
        </mxCell>
        <mxCell id="ri0Ij2RGUE_Cn3Q0Ax71-47" value="Organization ID&amp;nbsp;" style="whiteSpace=wrap;html=1;align=center;spacing=2;imageHeight=24;fillOpacity=100;fontSize=12;" parent="ri0Ij2RGUE_Cn3Q0Ax71-106" vertex="1">
          <mxGeometry x="310" y="30" width="125.07" height="40" as="geometry" />
        </mxCell>
        <mxCell id="ri0Ij2RGUE_Cn3Q0Ax71-49" value="&amp;nbsp;Event Type" style="whiteSpace=wrap;html=1;align=center;spacing=2;imageHeight=24;fillOpacity=100;fontSize=12;" parent="ri0Ij2RGUE_Cn3Q0Ax71-106" vertex="1">
          <mxGeometry x="540" y="30" width="98.65" height="40" as="geometry" />
        </mxCell>
        <mxCell id="ri0Ij2RGUE_Cn3Q0Ax71-50" value="Date/Time Start" style="whiteSpace=wrap;html=1;align=center;spacing=2;imageHeight=24;fillOpacity=100;fontSize=12;" parent="ri0Ij2RGUE_Cn3Q0Ax71-106" vertex="1">
          <mxGeometry x="638.65" y="30" width="121.35" height="40" as="geometry" />
        </mxCell>
        <mxCell id="ri0Ij2RGUE_Cn3Q0Ax71-103" value="Date/Time End" style="whiteSpace=wrap;html=1;align=center;spacing=2;imageHeight=24;fillOpacity=100;fontSize=12;" parent="ri0Ij2RGUE_Cn3Q0Ax71-106" vertex="1">
          <mxGeometry x="760" y="30" width="120" height="40" as="geometry" />
        </mxCell>
        <mxCell id="ri0Ij2RGUE_Cn3Q0Ax71-104" value="Duration" style="whiteSpace=wrap;html=1;align=center;spacing=2;imageHeight=24;fillOpacity=100;fontSize=12;" parent="ri0Ij2RGUE_Cn3Q0Ax71-106" vertex="1">
          <mxGeometry x="881.35" y="30" width="88.65" height="40" as="geometry" />
        </mxCell>
        <mxCell id="ri0Ij2RGUE_Cn3Q0Ax71-105" value="Quota" style="whiteSpace=wrap;html=1;align=center;spacing=2;imageHeight=24;fillOpacity=100;fontSize=12;" parent="ri0Ij2RGUE_Cn3Q0Ax71-106" vertex="1">
          <mxGeometry x="970" y="30" width="90" height="40" as="geometry" />
        </mxCell>
        <mxCell id="ri0Ij2RGUE_Cn3Q0Ax71-48" value="Partner ID" style="whiteSpace=wrap;html=1;align=center;spacing=2;imageHeight=24;fillOpacity=100;fontSize=12;" parent="ri0Ij2RGUE_Cn3Q0Ax71-106" vertex="1">
          <mxGeometry x="435.07" y="30" width="104.93" height="40" as="geometry" />
        </mxCell>
        <mxCell id="ri0Ij2RGUE_Cn3Q0Ax71-148" value="" style="group;fontSize=12;" parent="1" vertex="1" connectable="0">
          <mxGeometry x="1450" y="650" width="160" height="64" as="geometry" />
        </mxCell>
        <mxCell id="ri0Ij2RGUE_Cn3Q0Ax71-138" value="" style="group;fontSize=12;" parent="ri0Ij2RGUE_Cn3Q0Ax71-148" vertex="1" connectable="0">
          <mxGeometry width="160" height="64" as="geometry" />
        </mxCell>
        <mxCell id="ri0Ij2RGUE_Cn3Q0Ax71-143" value="" style="group;fontSize=12;" parent="ri0Ij2RGUE_Cn3Q0Ax71-138" vertex="1" connectable="0">
          <mxGeometry y="24" width="150" height="40" as="geometry" />
        </mxCell>
        <mxCell id="ri0Ij2RGUE_Cn3Q0Ax71-144" value="&lt;u&gt;&lt;b&gt;Menu ID&lt;/b&gt;&lt;/u&gt;" style="whiteSpace=wrap;html=1;align=center;fontSize=12;" parent="ri0Ij2RGUE_Cn3Q0Ax71-143" vertex="1">
          <mxGeometry x="-20" width="80" height="40" as="geometry" />
        </mxCell>
        <mxCell id="ri0Ij2RGUE_Cn3Q0Ax71-145" style="edgeStyle=orthogonalEdgeStyle;rounded=0;orthogonalLoop=1;jettySize=auto;html=1;exitX=0;exitY=0.5;exitDx=0;exitDy=0;entryX=1;entryY=0.5;entryDx=0;entryDy=0;fontSize=12;" parent="ri0Ij2RGUE_Cn3Q0Ax71-143" source="ri0Ij2RGUE_Cn3Q0Ax71-146" target="ri0Ij2RGUE_Cn3Q0Ax71-144" edge="1">
          <mxGeometry relative="1" as="geometry" />
        </mxCell>
        <mxCell id="ri0Ij2RGUE_Cn3Q0Ax71-146" value="Shop ID" style="whiteSpace=wrap;html=1;align=center;fontSize=12;" parent="ri0Ij2RGUE_Cn3Q0Ax71-143" vertex="1">
          <mxGeometry x="60" width="90" height="40" as="geometry" />
        </mxCell>
        <mxCell id="ri0Ij2RGUE_Cn3Q0Ax71-139" value="" style="shape=table;startSize=0;container=1;collapsible=1;childLayout=tableLayout;fixedRows=1;rowLines=0;fontStyle=0;align=center;resizeLast=1;strokeColor=none;fillColor=none;collapsible=0;whiteSpace=wrap;html=1;fontSize=12;" parent="ri0Ij2RGUE_Cn3Q0Ax71-148" vertex="1">
          <mxGeometry x="70" width="80" height="24" as="geometry" />
        </mxCell>
        <mxCell id="ri0Ij2RGUE_Cn3Q0Ax71-140" value="" style="shape=tableRow;horizontal=0;startSize=0;swimlaneHead=0;swimlaneBody=0;fillColor=none;collapsible=0;dropTarget=0;points=[[0,0.5],[1,0.5]];portConstraint=eastwest;top=0;left=0;right=0;bottom=0;fontSize=12;" parent="ri0Ij2RGUE_Cn3Q0Ax71-139" vertex="1">
          <mxGeometry width="80" height="20" as="geometry" />
        </mxCell>
        <mxCell id="ri0Ij2RGUE_Cn3Q0Ax71-141" value="" style="shape=partialRectangle;connectable=0;fillColor=none;top=0;left=0;bottom=0;right=0;editable=1;overflow=hidden;fontSize=12;" parent="ri0Ij2RGUE_Cn3Q0Ax71-140" vertex="1">
          <mxGeometry width="30" height="20" as="geometry">
            <mxRectangle width="30" height="20" as="alternateBounds" />
          </mxGeometry>
        </mxCell>
        <mxCell id="ri0Ij2RGUE_Cn3Q0Ax71-142" value="MENU" style="shape=partialRectangle;connectable=0;fillColor=none;top=0;left=0;bottom=0;right=0;align=left;spacingLeft=6;overflow=hidden;fontSize=12;" parent="ri0Ij2RGUE_Cn3Q0Ax71-140" vertex="1">
          <mxGeometry x="30" width="50" height="20" as="geometry">
            <mxRectangle width="50" height="20" as="alternateBounds" />
          </mxGeometry>
        </mxCell>
        <mxCell id="ri0Ij2RGUE_Cn3Q0Ax71-160" value="" style="group;fontSize=12;" parent="1" vertex="1" connectable="0">
          <mxGeometry x="1030" y="910" width="522.54" height="64" as="geometry" />
        </mxCell>
        <mxCell id="8tz2_ULPFMPT9zLTGULX-4" value="" style="group" parent="ri0Ij2RGUE_Cn3Q0Ax71-160" vertex="1" connectable="0">
          <mxGeometry x="30" width="420" height="64" as="geometry" />
        </mxCell>
        <mxCell id="ri0Ij2RGUE_Cn3Q0Ax71-161" value="Price" style="whiteSpace=wrap;html=1;align=center;spacing=2;imageHeight=24;fillOpacity=100;fontSize=12;" parent="8tz2_ULPFMPT9zLTGULX-4" vertex="1">
          <mxGeometry x="273.4883720930232" y="24" width="65.89116279069768" height="40" as="geometry" />
        </mxCell>
        <mxCell id="ri0Ij2RGUE_Cn3Q0Ax71-162" value="&lt;u&gt;&lt;b&gt;Product ID&lt;/b&gt;&lt;/u&gt;" style="whiteSpace=wrap;html=1;align=center;fontSize=12;" parent="8tz2_ULPFMPT9zLTGULX-4" vertex="1">
          <mxGeometry y="24" width="78.13953488372094" height="40" as="geometry" />
        </mxCell>
        <mxCell id="ri0Ij2RGUE_Cn3Q0Ax71-163" style="edgeStyle=orthogonalEdgeStyle;rounded=0;orthogonalLoop=1;jettySize=auto;html=1;exitX=0;exitY=0.5;exitDx=0;exitDy=0;entryX=1;entryY=0.5;entryDx=0;entryDy=0;fontSize=12;" parent="8tz2_ULPFMPT9zLTGULX-4" source="ri0Ij2RGUE_Cn3Q0Ax71-164" target="ri0Ij2RGUE_Cn3Q0Ax71-162" edge="1">
          <mxGeometry relative="1" as="geometry" />
        </mxCell>
        <mxCell id="ri0Ij2RGUE_Cn3Q0Ax71-164" value="Product Name" style="whiteSpace=wrap;html=1;align=center;fontSize=12;" parent="8tz2_ULPFMPT9zLTGULX-4" vertex="1">
          <mxGeometry x="78.13953488372094" y="24" width="97.67441860465118" height="40" as="geometry" />
        </mxCell>
        <mxCell id="ri0Ij2RGUE_Cn3Q0Ax71-165" value="Product Type" style="whiteSpace=wrap;html=1;align=center;spacing=2;imageHeight=24;fillOpacity=100;fontSize=12;" parent="8tz2_ULPFMPT9zLTGULX-4" vertex="1">
          <mxGeometry x="175.8139534883721" y="24" width="97.67441860465118" height="40" as="geometry" />
        </mxCell>
        <mxCell id="ri0Ij2RGUE_Cn3Q0Ax71-166" value="" style="shape=table;startSize=0;container=1;collapsible=1;childLayout=tableLayout;fixedRows=1;rowLines=0;fontStyle=0;align=center;resizeLast=1;strokeColor=none;fillColor=none;collapsible=0;whiteSpace=wrap;html=1;fontSize=12;" parent="8tz2_ULPFMPT9zLTGULX-4" vertex="1">
          <mxGeometry x="312.55813953488376" width="107.44186046511628" height="24" as="geometry" />
        </mxCell>
        <mxCell id="ri0Ij2RGUE_Cn3Q0Ax71-167" value="" style="shape=tableRow;horizontal=0;startSize=0;swimlaneHead=0;swimlaneBody=0;fillColor=none;collapsible=0;dropTarget=0;points=[[0,0.5],[1,0.5]];portConstraint=eastwest;top=0;left=0;right=0;bottom=0;fontSize=12;" parent="ri0Ij2RGUE_Cn3Q0Ax71-166" vertex="1">
          <mxGeometry width="107.44186046511628" height="20" as="geometry" />
        </mxCell>
        <mxCell id="ri0Ij2RGUE_Cn3Q0Ax71-168" value="" style="shape=partialRectangle;connectable=0;fillColor=none;top=0;left=0;bottom=0;right=0;editable=1;overflow=hidden;fontSize=12;" parent="ri0Ij2RGUE_Cn3Q0Ax71-167" vertex="1">
          <mxGeometry width="30" height="20" as="geometry">
            <mxRectangle width="30" height="20" as="alternateBounds" />
          </mxGeometry>
        </mxCell>
        <mxCell id="ri0Ij2RGUE_Cn3Q0Ax71-169" value="PRODUCT" style="shape=partialRectangle;connectable=0;fillColor=none;top=0;left=0;bottom=0;right=0;align=left;spacingLeft=6;overflow=hidden;fontSize=12;" parent="ri0Ij2RGUE_Cn3Q0Ax71-167" vertex="1">
          <mxGeometry x="30" width="77.44186046511628" height="20" as="geometry">
            <mxRectangle width="77.44186046511628" height="20" as="alternateBounds" />
          </mxGeometry>
        </mxCell>
        <mxCell id="ri0Ij2RGUE_Cn3Q0Ax71-170" value="Menu ID" style="whiteSpace=wrap;html=1;align=center;fontSize=12;" parent="8tz2_ULPFMPT9zLTGULX-4" vertex="1">
          <mxGeometry x="339.3795348837209" y="24" width="80.62046511627908" height="40" as="geometry" />
        </mxCell>
        <mxCell id="8tz2_ULPFMPT9zLTGULX-1" value="Shop ID" style="whiteSpace=wrap;html=1;align=center;fontSize=12;" parent="ri0Ij2RGUE_Cn3Q0Ax71-160" vertex="1">
          <mxGeometry x="450" y="24" width="82.54" height="40" as="geometry" />
        </mxCell>
        <mxCell id="ri0Ij2RGUE_Cn3Q0Ax71-176" value="" style="group" parent="1" vertex="1" connectable="0">
          <mxGeometry x="190" y="910" width="610" height="64" as="geometry" />
        </mxCell>
        <mxCell id="ri0Ij2RGUE_Cn3Q0Ax71-175" value="Review Comment" style="whiteSpace=wrap;html=1;align=center;fontSize=12;" parent="ri0Ij2RGUE_Cn3Q0Ax71-176" vertex="1">
          <mxGeometry x="490" y="24" width="120" height="40" as="geometry" />
        </mxCell>
        <mxCell id="ri0Ij2RGUE_Cn3Q0Ax71-150" value="Product Review Rate&amp;nbsp;" style="whiteSpace=wrap;html=1;align=center;spacing=2;imageHeight=24;fillOpacity=100;fontSize=12;" parent="ri0Ij2RGUE_Cn3Q0Ax71-176" vertex="1">
          <mxGeometry x="240" y="24" width="130" height="40" as="geometry" />
        </mxCell>
        <mxCell id="ri0Ij2RGUE_Cn3Q0Ax71-151" value="User ID" style="whiteSpace=wrap;html=1;align=center;fontSize=12;" parent="ri0Ij2RGUE_Cn3Q0Ax71-176" vertex="1">
          <mxGeometry y="24" width="90" height="40" as="geometry" />
        </mxCell>
        <mxCell id="ri0Ij2RGUE_Cn3Q0Ax71-152" style="edgeStyle=orthogonalEdgeStyle;rounded=0;orthogonalLoop=1;jettySize=auto;html=1;exitX=0;exitY=0.5;exitDx=0;exitDy=0;entryX=1;entryY=0.5;entryDx=0;entryDy=0;fontSize=12;" parent="ri0Ij2RGUE_Cn3Q0Ax71-176" source="ri0Ij2RGUE_Cn3Q0Ax71-153" target="ri0Ij2RGUE_Cn3Q0Ax71-151" edge="1">
          <mxGeometry relative="1" as="geometry" />
        </mxCell>
        <mxCell id="ri0Ij2RGUE_Cn3Q0Ax71-153" value="Shop ID" style="whiteSpace=wrap;html=1;align=center;fontSize=12;" parent="ri0Ij2RGUE_Cn3Q0Ax71-176" vertex="1">
          <mxGeometry x="90" y="24" width="70" height="40" as="geometry" />
        </mxCell>
        <mxCell id="ri0Ij2RGUE_Cn3Q0Ax71-154" value="Product ID" style="whiteSpace=wrap;html=1;align=center;spacing=2;imageHeight=24;fillOpacity=100;fontSize=12;" parent="ri0Ij2RGUE_Cn3Q0Ax71-176" vertex="1">
          <mxGeometry x="160" y="24" width="80" height="40" as="geometry" />
        </mxCell>
        <mxCell id="ri0Ij2RGUE_Cn3Q0Ax71-159" value="Shop Review Rate" style="whiteSpace=wrap;html=1;align=center;fontSize=12;" parent="ri0Ij2RGUE_Cn3Q0Ax71-176" vertex="1">
          <mxGeometry x="370" y="24" width="120" height="40" as="geometry" />
        </mxCell>
        <mxCell id="OC3nGCjGOBW_ENE98FIM-5" style="edgeStyle=orthogonalEdgeStyle;rounded=0;orthogonalLoop=1;jettySize=auto;html=1;exitX=0.5;exitY=1;exitDx=0;exitDy=0;entryX=0.5;entryY=1;entryDx=0;entryDy=0;" parent="1" source="ri0Ij2RGUE_Cn3Q0Ax71-154" target="ri0Ij2RGUE_Cn3Q0Ax71-162" edge="1">
          <mxGeometry relative="1" as="geometry">
            <Array as="points">
              <mxPoint x="390" y="1020" />
              <mxPoint x="1099" y="1020" />
            </Array>
          </mxGeometry>
        </mxCell>
        <mxCell id="OC3nGCjGOBW_ENE98FIM-19" value="&lt;u&gt;&lt;b&gt;Review ID&lt;/b&gt;&lt;/u&gt;" style="whiteSpace=wrap;html=1;align=center;fontSize=12;" parent="1" vertex="1">
          <mxGeometry x="100" y="934" width="90" height="40" as="geometry" />
        </mxCell>
        <mxCell id="-rrcXTThZazwh1tiWerL-1" value="Review Date" style="whiteSpace=wrap;html=1;align=center;fontSize=12;" parent="1" vertex="1">
          <mxGeometry x="800" y="934" width="100" height="40" as="geometry" />
        </mxCell>
        <mxCell id="ri0Ij2RGUE_Cn3Q0Ax71-136" value="" style="group;fontSize=12;" parent="1" vertex="1" connectable="0">
          <mxGeometry x="840" y="604" width="250" height="40" as="geometry" />
        </mxCell>
        <mxCell id="ri0Ij2RGUE_Cn3Q0Ax71-112" value="Surname" style="whiteSpace=wrap;html=1;align=center;fontSize=12;" parent="ri0Ij2RGUE_Cn3Q0Ax71-136" vertex="1">
          <mxGeometry x="-20" width="80" height="40" as="geometry" />
        </mxCell>
        <mxCell id="ri0Ij2RGUE_Cn3Q0Ax71-113" style="edgeStyle=orthogonalEdgeStyle;rounded=0;orthogonalLoop=1;jettySize=auto;html=1;exitX=0;exitY=0.5;exitDx=0;exitDy=0;entryX=1;entryY=0.5;entryDx=0;entryDy=0;fontSize=12;" parent="ri0Ij2RGUE_Cn3Q0Ax71-136" source="ri0Ij2RGUE_Cn3Q0Ax71-114" target="ri0Ij2RGUE_Cn3Q0Ax71-112" edge="1">
          <mxGeometry relative="1" as="geometry" />
        </mxCell>
        <mxCell id="ri0Ij2RGUE_Cn3Q0Ax71-114" value="Mail Address" style="whiteSpace=wrap;html=1;align=center;fontSize=12;" parent="ri0Ij2RGUE_Cn3Q0Ax71-136" vertex="1">
          <mxGeometry x="60" width="90" height="40" as="geometry" />
        </mxCell>
        <mxCell id="8tz2_ULPFMPT9zLTGULX-5" value="Contact Number" style="whiteSpace=wrap;html=1;align=center;fontSize=12;" parent="ri0Ij2RGUE_Cn3Q0Ax71-136" vertex="1">
          <mxGeometry x="150" width="100" height="40" as="geometry" />
        </mxCell>
        <mxCell id="8tz2_ULPFMPT9zLTGULX-6" value="Name" style="whiteSpace=wrap;html=1;align=center;fontSize=12;" parent="1" vertex="1">
          <mxGeometry x="760" y="604" width="60" height="40" as="geometry" />
        </mxCell>
        <mxCell id="8tz2_ULPFMPT9zLTGULX-7" value="Password" style="whiteSpace=wrap;html=1;align=center;fontSize=12;" parent="1" vertex="1">
          <mxGeometry x="1090" y="604" width="90" height="40" as="geometry" />
        </mxCell>
        <mxCell id="ri0Ij2RGUE_Cn3Q0Ax71-116" value="" style="shape=table;startSize=0;container=1;collapsible=1;childLayout=tableLayout;fixedRows=1;rowLines=0;fontStyle=0;align=center;resizeLast=1;strokeColor=none;fillColor=none;collapsible=0;whiteSpace=wrap;html=1;fontSize=12;" parent="1" vertex="1">
          <mxGeometry x="1130" y="576" width="140" height="24" as="geometry" />
        </mxCell>
        <mxCell id="ri0Ij2RGUE_Cn3Q0Ax71-117" value="" style="shape=tableRow;horizontal=0;startSize=0;swimlaneHead=0;swimlaneBody=0;fillColor=none;collapsible=0;dropTarget=0;points=[[0,0.5],[1,0.5]];portConstraint=eastwest;top=0;left=0;right=0;bottom=0;fontSize=12;" parent="ri0Ij2RGUE_Cn3Q0Ax71-116" vertex="1">
          <mxGeometry width="140" height="20" as="geometry" />
        </mxCell>
        <mxCell id="ri0Ij2RGUE_Cn3Q0Ax71-118" value="" style="shape=partialRectangle;connectable=0;fillColor=none;top=0;left=0;bottom=0;right=0;editable=1;overflow=hidden;fontSize=12;" parent="ri0Ij2RGUE_Cn3Q0Ax71-117" vertex="1">
          <mxGeometry width="20" height="20" as="geometry">
            <mxRectangle width="20" height="20" as="alternateBounds" />
          </mxGeometry>
        </mxCell>
        <mxCell id="ri0Ij2RGUE_Cn3Q0Ax71-119" value="PARTNER PROFILE" style="shape=partialRectangle;connectable=0;fillColor=none;top=0;left=0;bottom=0;right=0;align=left;spacingLeft=6;overflow=hidden;fontSize=12;" parent="ri0Ij2RGUE_Cn3Q0Ax71-117" vertex="1">
          <mxGeometry x="20" width="120" height="20" as="geometry">
            <mxRectangle width="120" height="20" as="alternateBounds" />
          </mxGeometry>
        </mxCell>
        <mxCell id="8tz2_ULPFMPT9zLTGULX-8" value="&lt;u&gt;&lt;b&gt;Fiscal Code&lt;/b&gt;&lt;/u&gt;" style="whiteSpace=wrap;html=1;align=center;fontSize=12;" parent="1" vertex="1">
          <mxGeometry x="670" y="604" width="90" height="40" as="geometry" />
        </mxCell>
        <mxCell id="8tz2_ULPFMPT9zLTGULX-10" value="Shop ID" style="whiteSpace=wrap;html=1;align=center;fontSize=12;" parent="1" vertex="1">
          <mxGeometry x="1180" y="604" width="90" height="40" as="geometry" />
        </mxCell>
        <mxCell id="8tz2_ULPFMPT9zLTGULX-33" value="" style="endArrow=classic;html=1;rounded=0;exitX=0.5;exitY=1;exitDx=0;exitDy=0;entryX=0.5;entryY=0;entryDx=0;entryDy=0;" parent="1" source="8tz2_ULPFMPT9zLTGULX-10" target="ri0Ij2RGUE_Cn3Q0Ax71-122" edge="1">
          <mxGeometry width="50" height="50" relative="1" as="geometry">
            <mxPoint x="1190" y="730" as="sourcePoint" />
            <mxPoint x="1110" y="730" as="targetPoint" />
            <Array as="points">
              <mxPoint x="1225" y="720" />
              <mxPoint x="1104" y="720" />
            </Array>
          </mxGeometry>
        </mxCell>
        <mxCell id="8tz2_ULPFMPT9zLTGULX-34" style="edgeStyle=orthogonalEdgeStyle;rounded=0;orthogonalLoop=1;jettySize=auto;html=1;exitX=0.5;exitY=1;exitDx=0;exitDy=0;entryX=0.75;entryY=0;entryDx=0;entryDy=0;" parent="1" source="ri0Ij2RGUE_Cn3Q0Ax71-146" target="ri0Ij2RGUE_Cn3Q0Ax71-122" edge="1">
          <mxGeometry relative="1" as="geometry" />
        </mxCell>
        <mxCell id="8tz2_ULPFMPT9zLTGULX-36" style="edgeStyle=orthogonalEdgeStyle;rounded=0;orthogonalLoop=1;jettySize=auto;html=1;exitX=0.5;exitY=0;exitDx=0;exitDy=0;entryX=0.5;entryY=1;entryDx=0;entryDy=0;" parent="1" source="ri0Ij2RGUE_Cn3Q0Ax71-153" target="ri0Ij2RGUE_Cn3Q0Ax71-122" edge="1">
          <mxGeometry relative="1" as="geometry" />
        </mxCell>
        <mxCell id="8tz2_ULPFMPT9zLTGULX-38" style="edgeStyle=orthogonalEdgeStyle;rounded=0;orthogonalLoop=1;jettySize=auto;html=1;exitX=0.5;exitY=0;exitDx=0;exitDy=0;" parent="1" source="ri0Ij2RGUE_Cn3Q0Ax71-47" target="ri0Ij2RGUE_Cn3Q0Ax71-90" edge="1">
          <mxGeometry relative="1" as="geometry" />
        </mxCell>
        <mxCell id="8tz2_ULPFMPT9zLTGULX-39" style="edgeStyle=orthogonalEdgeStyle;rounded=0;orthogonalLoop=1;jettySize=auto;html=1;exitX=0.5;exitY=1;exitDx=0;exitDy=0;entryX=0.5;entryY=0;entryDx=0;entryDy=0;" parent="1" source="ri0Ij2RGUE_Cn3Q0Ax71-48" target="8tz2_ULPFMPT9zLTGULX-8" edge="1">
          <mxGeometry relative="1" as="geometry">
            <Array as="points">
              <mxPoint x="858" y="570" />
              <mxPoint x="715" y="570" />
            </Array>
          </mxGeometry>
        </mxCell>
        <mxCell id="VDBeY17ImBqY-Y7d8Nx9-2" style="edgeStyle=orthogonalEdgeStyle;rounded=0;orthogonalLoop=1;jettySize=auto;html=1;exitX=0.25;exitY=0;exitDx=0;exitDy=0;entryX=0.75;entryY=1;entryDx=0;entryDy=0;" parent="1" source="ri0Ij2RGUE_Cn3Q0Ax71-47" target="ri0Ij2RGUE_Cn3Q0Ax71-14" edge="1">
          <mxGeometry relative="1" as="geometry">
            <Array as="points">
              <mxPoint x="711" y="280" />
              <mxPoint x="209" y="280" />
            </Array>
          </mxGeometry>
        </mxCell>
        <mxCell id="ri0Ij2RGUE_Cn3Q0Ax71-121" value="Type" style="whiteSpace=wrap;html=1;align=center;spacing=2;imageHeight=24;fillOpacity=100;fontSize=12;" parent="1" vertex="1">
          <mxGeometry x="1336.4454166666667" y="794" width="66.05458333333333" height="40" as="geometry" />
        </mxCell>
        <mxCell id="ri0Ij2RGUE_Cn3Q0Ax71-122" value="&lt;u&gt;&lt;b&gt;Shop Fiscal Code&lt;/b&gt;&lt;/u&gt;" style="whiteSpace=wrap;html=1;align=center;fontSize=12;" parent="1" vertex="1">
          <mxGeometry x="1050" y="794" width="107.70833333333333" height="40" as="geometry" />
        </mxCell>
        <mxCell id="ri0Ij2RGUE_Cn3Q0Ax71-123" style="edgeStyle=orthogonalEdgeStyle;rounded=0;orthogonalLoop=1;jettySize=auto;html=1;exitX=0;exitY=0.5;exitDx=0;exitDy=0;entryX=1;entryY=0.5;entryDx=0;entryDy=0;fontSize=12;" parent="1" source="ri0Ij2RGUE_Cn3Q0Ax71-124" target="ri0Ij2RGUE_Cn3Q0Ax71-122" edge="1">
          <mxGeometry relative="1" as="geometry" />
        </mxCell>
        <mxCell id="ri0Ij2RGUE_Cn3Q0Ax71-124" value="Company Name" style="whiteSpace=wrap;html=1;align=center;fontSize=12;" parent="1" vertex="1">
          <mxGeometry x="1157.7083333333333" y="794" width="97.91666666666666" height="40" as="geometry" />
        </mxCell>
        <mxCell id="ri0Ij2RGUE_Cn3Q0Ax71-125" value="Address" style="whiteSpace=wrap;html=1;align=center;spacing=2;imageHeight=24;fillOpacity=100;fontSize=12;" parent="1" vertex="1">
          <mxGeometry x="1255.625" y="794" width="80.82041666666667" height="40" as="geometry" />
        </mxCell>
        <mxCell id="ri0Ij2RGUE_Cn3Q0Ax71-126" value="" style="shape=table;startSize=0;container=1;collapsible=1;childLayout=tableLayout;fixedRows=1;rowLines=0;fontStyle=0;align=center;resizeLast=1;strokeColor=none;fillColor=none;collapsible=0;whiteSpace=wrap;html=1;fontSize=12;" parent="1" vertex="1">
          <mxGeometry x="1426" y="770" width="74.41666666666666" height="24" as="geometry" />
        </mxCell>
        <mxCell id="ri0Ij2RGUE_Cn3Q0Ax71-127" value="" style="shape=tableRow;horizontal=0;startSize=0;swimlaneHead=0;swimlaneBody=0;fillColor=none;collapsible=0;dropTarget=0;points=[[0,0.5],[1,0.5]];portConstraint=eastwest;top=0;left=0;right=0;bottom=0;fontSize=12;" parent="ri0Ij2RGUE_Cn3Q0Ax71-126" vertex="1">
          <mxGeometry width="74.41666666666666" height="20" as="geometry" />
        </mxCell>
        <mxCell id="ri0Ij2RGUE_Cn3Q0Ax71-128" value="" style="shape=partialRectangle;connectable=0;fillColor=none;top=0;left=0;bottom=0;right=0;editable=1;overflow=hidden;fontSize=12;" parent="ri0Ij2RGUE_Cn3Q0Ax71-127" vertex="1">
          <mxGeometry width="30" height="20" as="geometry">
            <mxRectangle width="30" height="20" as="alternateBounds" />
          </mxGeometry>
        </mxCell>
        <mxCell id="ri0Ij2RGUE_Cn3Q0Ax71-129" value="SHOP" style="shape=partialRectangle;connectable=0;fillColor=none;top=0;left=0;bottom=0;right=0;align=left;spacingLeft=6;overflow=hidden;fontSize=12;" parent="ri0Ij2RGUE_Cn3Q0Ax71-127" vertex="1">
          <mxGeometry x="30" width="44.41666666666666" height="20" as="geometry">
            <mxRectangle width="44.41666666666666" height="20" as="alternateBounds" />
          </mxGeometry>
        </mxCell>
        <mxCell id="wuoGvGYgDTkhkpgr6IQ_-11" value="General Rate" style="whiteSpace=wrap;html=1;align=center;fontSize=12;" parent="1" vertex="1">
          <mxGeometry x="1402.4983333333332" y="794" width="97.91666666666666" height="40" as="geometry" />
        </mxCell>
        <mxCell id="wuoGvGYgDTkhkpgr6IQ_-13" value="Like Count" style="whiteSpace=wrap;html=1;align=center;fontSize=12;" parent="1" vertex="1">
          <mxGeometry x="900" y="934" width="100" height="40" as="geometry" />
        </mxCell>
        <mxCell id="wuoGvGYgDTkhkpgr6IQ_-16" value="Followers Count" style="whiteSpace=wrap;html=1;align=center;spacing=2;imageHeight=24;fillOpacity=100;fontSize=12;" parent="1" vertex="1">
          <mxGeometry x="1270" y="604" width="150" height="40" as="geometry" />
        </mxCell>
        <mxCell id="ri0Ij2RGUE_Cn3Q0Ax71-94" value="" style="shape=table;startSize=0;container=1;collapsible=1;childLayout=tableLayout;fixedRows=1;rowLines=0;fontStyle=0;align=center;resizeLast=1;strokeColor=none;fillColor=none;collapsible=0;whiteSpace=wrap;html=1;fontSize=12;" parent="1" vertex="1">
          <mxGeometry x="1440" y="250" width="190" height="24" as="geometry" />
        </mxCell>
        <mxCell id="ri0Ij2RGUE_Cn3Q0Ax71-95" value="" style="shape=tableRow;horizontal=0;startSize=0;swimlaneHead=0;swimlaneBody=0;fillColor=none;collapsible=0;dropTarget=0;points=[[0,0.5],[1,0.5]];portConstraint=eastwest;top=0;left=0;right=0;bottom=0;fontSize=12;" parent="ri0Ij2RGUE_Cn3Q0Ax71-94" vertex="1">
          <mxGeometry width="190" height="20" as="geometry" />
        </mxCell>
        <mxCell id="ri0Ij2RGUE_Cn3Q0Ax71-96" value="" style="shape=partialRectangle;connectable=0;fillColor=none;top=0;left=0;bottom=0;right=0;editable=1;overflow=hidden;fontSize=12;" parent="ri0Ij2RGUE_Cn3Q0Ax71-95" vertex="1">
          <mxGeometry width="20" height="20" as="geometry">
            <mxRectangle width="20" height="20" as="alternateBounds" />
          </mxGeometry>
        </mxCell>
        <mxCell id="ri0Ij2RGUE_Cn3Q0Ax71-97" value="ORGANZATIONS PROFILE" style="shape=partialRectangle;connectable=0;fillColor=none;top=0;left=0;bottom=0;right=0;align=left;spacingLeft=6;overflow=hidden;fontSize=12;" parent="ri0Ij2RGUE_Cn3Q0Ax71-95" vertex="1">
          <mxGeometry x="20" width="170" height="20" as="geometry">
            <mxRectangle width="170" height="20" as="alternateBounds" />
          </mxGeometry>
        </mxCell>
        <mxCell id="wuoGvGYgDTkhkpgr6IQ_-23" value="" style="group" parent="1" vertex="1" connectable="0">
          <mxGeometry x="910" y="274" width="720" height="40" as="geometry" />
        </mxCell>
        <mxCell id="wuoGvGYgDTkhkpgr6IQ_-15" value="Followers Count" style="whiteSpace=wrap;html=1;align=center;spacing=2;imageHeight=24;fillOpacity=100;fontSize=12;" parent="wuoGvGYgDTkhkpgr6IQ_-23" vertex="1">
          <mxGeometry x="570" width="150" height="40" as="geometry" />
        </mxCell>
        <mxCell id="ri0Ij2RGUE_Cn3Q0Ax71-89" value="Contact Number" style="whiteSpace=wrap;html=1;align=center;spacing=2;imageHeight=24;fillOpacity=100;fontSize=12;" parent="wuoGvGYgDTkhkpgr6IQ_-23" vertex="1">
          <mxGeometry x="310" width="100" height="40" as="geometry" />
        </mxCell>
        <mxCell id="ri0Ij2RGUE_Cn3Q0Ax71-90" value="&lt;u&gt;&lt;b&gt;Fiscal Code&lt;/b&gt;&lt;/u&gt;" style="whiteSpace=wrap;html=1;align=center;fontSize=12;" parent="wuoGvGYgDTkhkpgr6IQ_-23" vertex="1">
          <mxGeometry width="80" height="40" as="geometry" />
        </mxCell>
        <mxCell id="ri0Ij2RGUE_Cn3Q0Ax71-91" style="edgeStyle=orthogonalEdgeStyle;rounded=0;orthogonalLoop=1;jettySize=auto;html=1;exitX=0;exitY=0.5;exitDx=0;exitDy=0;entryX=1;entryY=0.5;entryDx=0;entryDy=0;fontSize=12;" parent="wuoGvGYgDTkhkpgr6IQ_-23" source="ri0Ij2RGUE_Cn3Q0Ax71-92" target="ri0Ij2RGUE_Cn3Q0Ax71-90" edge="1">
          <mxGeometry relative="1" as="geometry" />
        </mxCell>
        <mxCell id="ri0Ij2RGUE_Cn3Q0Ax71-92" value="Organization Name" style="whiteSpace=wrap;html=1;align=center;fontSize=12;" parent="wuoGvGYgDTkhkpgr6IQ_-23" vertex="1">
          <mxGeometry x="80" width="139" height="40" as="geometry" />
        </mxCell>
        <mxCell id="ri0Ij2RGUE_Cn3Q0Ax71-93" value="Mail Address" style="whiteSpace=wrap;html=1;align=center;spacing=2;imageHeight=24;fillOpacity=100;fontSize=12;" parent="wuoGvGYgDTkhkpgr6IQ_-23" vertex="1">
          <mxGeometry x="219" width="92.53731343283583" height="40" as="geometry" />
        </mxCell>
        <mxCell id="8tz2_ULPFMPT9zLTGULX-28" value="Password" style="whiteSpace=wrap;html=1;align=center;spacing=2;imageHeight=24;fillOpacity=100;fontSize=12;" parent="wuoGvGYgDTkhkpgr6IQ_-23" vertex="1">
          <mxGeometry x="410" width="92.53731343283583" height="40" as="geometry" />
        </mxCell>
        <mxCell id="8tz2_ULPFMPT9zLTGULX-29" value="Role" style="whiteSpace=wrap;html=1;align=center;spacing=2;imageHeight=24;fillOpacity=100;fontSize=12;" parent="wuoGvGYgDTkhkpgr6IQ_-23" vertex="1">
          <mxGeometry x="502.53999999999996" width="67.46" height="40" as="geometry" />
        </mxCell>
        <mxCell id="wuoGvGYgDTkhkpgr6IQ_-24" style="edgeStyle=orthogonalEdgeStyle;rounded=0;orthogonalLoop=1;jettySize=auto;html=1;exitX=0.5;exitY=0;exitDx=0;exitDy=0;entryX=0.75;entryY=1;entryDx=0;entryDy=0;" parent="1" source="8tz2_ULPFMPT9zLTGULX-1" target="ri0Ij2RGUE_Cn3Q0Ax71-122" edge="1">
          <mxGeometry relative="1" as="geometry" />
        </mxCell>
        <mxCell id="wuoGvGYgDTkhkpgr6IQ_-25" style="edgeStyle=orthogonalEdgeStyle;rounded=0;orthogonalLoop=1;jettySize=auto;html=1;exitX=0.5;exitY=1;exitDx=0;exitDy=0;entryX=0.5;entryY=0;entryDx=0;entryDy=0;" parent="1" source="ri0Ij2RGUE_Cn3Q0Ax71-170" target="ri0Ij2RGUE_Cn3Q0Ax71-144" edge="1">
          <mxGeometry relative="1" as="geometry">
            <mxPoint x="1630" y="610" as="targetPoint" />
            <Array as="points">
              <mxPoint x="1440" y="994" />
              <mxPoint x="1620" y="994" />
              <mxPoint x="1620" y="610" />
              <mxPoint x="1470" y="610" />
            </Array>
          </mxGeometry>
        </mxCell>
        <mxCell id="wuoGvGYgDTkhkpgr6IQ_-26" value="" style="group" parent="1" vertex="1" connectable="0">
          <mxGeometry x="130" y="110" width="1190" height="534" as="geometry" />
        </mxCell>
        <mxCell id="ri0Ij2RGUE_Cn3Q0Ax71-14" value="&lt;u&gt;&lt;b&gt;Fiscal Code&lt;/b&gt;&lt;/u&gt;" style="whiteSpace=wrap;html=1;align=center;spacing=2;imageHeight=24;fillOpacity=100;fontSize=12;" parent="wuoGvGYgDTkhkpgr6IQ_-26" vertex="1">
          <mxGeometry x="10" y="30" width="92.53731343283583" height="40" as="geometry" />
        </mxCell>
        <mxCell id="ri0Ij2RGUE_Cn3Q0Ax71-21" value="Name" style="whiteSpace=wrap;html=1;spacing=2;imageHeight=24;fillOpacity=100;fontSize=12;container=0;" parent="wuoGvGYgDTkhkpgr6IQ_-26" vertex="1">
          <mxGeometry x="102.53731343283584" y="30" width="74.02985074626868" height="40" as="geometry" />
        </mxCell>
        <mxCell id="ri0Ij2RGUE_Cn3Q0Ax71-23" value="Surname" style="whiteSpace=wrap;html=1;align=center;spacing=2;imageHeight=24;fillOpacity=100;fontSize=12;" parent="wuoGvGYgDTkhkpgr6IQ_-26" vertex="1">
          <mxGeometry x="176.56716417910445" y="30" width="92.53731343283583" height="40" as="geometry" />
        </mxCell>
        <mxCell id="ri0Ij2RGUE_Cn3Q0Ax71-24" value="Mail Address" style="whiteSpace=wrap;html=1;align=center;spacing=2;imageHeight=24;fillOpacity=100;fontSize=12;" parent="wuoGvGYgDTkhkpgr6IQ_-26" vertex="1">
          <mxGeometry x="264.0983606557377" y="30" width="97.5432786885246" height="40" as="geometry" />
        </mxCell>
        <mxCell id="ri0Ij2RGUE_Cn3Q0Ax71-25" value="Contact Number" style="whiteSpace=wrap;html=1;align=center;spacing=2;imageHeight=24;fillOpacity=100;fontSize=12;" parent="wuoGvGYgDTkhkpgr6IQ_-26" vertex="1">
          <mxGeometry x="361.64179104477626" y="30" width="111.044776119403" height="40" as="geometry" />
        </mxCell>
        <mxCell id="ri0Ij2RGUE_Cn3Q0Ax71-26" value="Password" style="whiteSpace=wrap;html=1;align=center;spacing=2;imageHeight=24;fillOpacity=100;fontSize=12;" parent="wuoGvGYgDTkhkpgr6IQ_-26" vertex="1">
          <mxGeometry x="472.6865671641792" y="30" width="92.53731343283583" height="40" as="geometry" />
        </mxCell>
        <mxCell id="ri0Ij2RGUE_Cn3Q0Ax71-28" value="Role" style="whiteSpace=wrap;html=1;align=center;spacing=2;imageHeight=24;fillOpacity=100;fontSize=12;" parent="wuoGvGYgDTkhkpgr6IQ_-26" vertex="1">
          <mxGeometry x="565.2238805970151" y="30" width="64.77611940298509" height="40" as="geometry" />
        </mxCell>
        <mxCell id="8tz2_ULPFMPT9zLTGULX-24" value="Faculty" style="whiteSpace=wrap;html=1;align=center;spacing=2;imageHeight=24;fillOpacity=100;fontSize=12;" parent="wuoGvGYgDTkhkpgr6IQ_-26" vertex="1">
          <mxGeometry x="630" y="30" width="80" height="40" as="geometry" />
        </mxCell>
        <mxCell id="8tz2_ULPFMPT9zLTGULX-25" value="Department" style="whiteSpace=wrap;html=1;align=center;spacing=2;imageHeight=24;fillOpacity=100;fontSize=12;" parent="wuoGvGYgDTkhkpgr6IQ_-26" vertex="1">
          <mxGeometry x="710" y="30" width="100" height="40" as="geometry" />
        </mxCell>
        <mxCell id="8tz2_ULPFMPT9zLTGULX-26" value="Position" style="whiteSpace=wrap;html=1;align=center;spacing=2;imageHeight=24;fillOpacity=100;fontSize=12;" parent="wuoGvGYgDTkhkpgr6IQ_-26" vertex="1">
          <mxGeometry x="810" y="30" width="90" height="40" as="geometry" />
        </mxCell>
        <mxCell id="wuoGvGYgDTkhkpgr6IQ_-14" value="Followers Count" style="whiteSpace=wrap;html=1;align=center;spacing=2;imageHeight=24;fillOpacity=100;fontSize=12;" parent="wuoGvGYgDTkhkpgr6IQ_-26" vertex="1">
          <mxGeometry x="900" y="30" width="150" height="40" as="geometry" />
        </mxCell>
        <mxCell id="wuoGvGYgDTkhkpgr6IQ_-18" value="Following Count" style="whiteSpace=wrap;html=1;align=center;spacing=2;imageHeight=24;fillOpacity=100;fontSize=12;" parent="wuoGvGYgDTkhkpgr6IQ_-26" vertex="1">
          <mxGeometry x="1040" y="30" width="150" height="40" as="geometry" />
        </mxCell>
        <mxCell id="AChMA_YjchhOcc8vBNKN-32" value="" style="shape=table;startSize=0;container=1;collapsible=1;childLayout=tableLayout;fixedRows=1;rowLines=0;fontStyle=0;align=center;resizeLast=1;strokeColor=none;fillColor=none;collapsible=0;whiteSpace=wrap;html=1;fontSize=12;" parent="wuoGvGYgDTkhkpgr6IQ_-26" vertex="1">
          <mxGeometry x="151.63999999999987" y="220" width="210" height="24" as="geometry" />
        </mxCell>
        <mxCell id="AChMA_YjchhOcc8vBNKN-33" value="" style="shape=tableRow;horizontal=0;startSize=0;swimlaneHead=0;swimlaneBody=0;fillColor=none;collapsible=0;dropTarget=0;points=[[0,0.5],[1,0.5]];portConstraint=eastwest;top=0;left=0;right=0;bottom=0;fontSize=12;" parent="AChMA_YjchhOcc8vBNKN-32" vertex="1">
          <mxGeometry width="210" height="20" as="geometry" />
        </mxCell>
        <mxCell id="AChMA_YjchhOcc8vBNKN-34" value="" style="shape=partialRectangle;connectable=0;fillColor=none;top=0;left=0;bottom=0;right=0;editable=1;overflow=hidden;fontSize=12;" parent="AChMA_YjchhOcc8vBNKN-33" vertex="1">
          <mxGeometry width="20" height="20" as="geometry">
            <mxRectangle width="20" height="20" as="alternateBounds" />
          </mxGeometry>
        </mxCell>
        <mxCell id="AChMA_YjchhOcc8vBNKN-35" value="USER FOLLOW PARTNER" style="shape=partialRectangle;connectable=0;fillColor=none;top=0;left=0;bottom=0;right=0;align=left;spacingLeft=6;overflow=hidden;fontSize=12;" parent="AChMA_YjchhOcc8vBNKN-33" vertex="1">
          <mxGeometry x="20" width="190" height="20" as="geometry">
            <mxRectangle width="190" height="20" as="alternateBounds" />
          </mxGeometry>
        </mxCell>
        <mxCell id="ri0Ij2RGUE_Cn3Q0Ax71-35" value="" style="shape=table;startSize=0;container=1;collapsible=1;childLayout=tableLayout;fixedRows=1;rowLines=0;fontStyle=0;align=center;resizeLast=1;strokeColor=none;fillColor=none;collapsible=0;whiteSpace=wrap;html=1;fontSize=12;" parent="wuoGvGYgDTkhkpgr6IQ_-26" vertex="1">
          <mxGeometry x="1060" width="140" height="40" as="geometry" />
        </mxCell>
        <mxCell id="ri0Ij2RGUE_Cn3Q0Ax71-36" value="" style="shape=tableRow;horizontal=0;startSize=0;swimlaneHead=0;swimlaneBody=0;fillColor=none;collapsible=0;dropTarget=0;points=[[0,0.5],[1,0.5]];portConstraint=eastwest;top=0;left=0;right=0;bottom=0;fontSize=12;" parent="ri0Ij2RGUE_Cn3Q0Ax71-35" vertex="1">
          <mxGeometry width="140" height="30" as="geometry" />
        </mxCell>
        <mxCell id="ri0Ij2RGUE_Cn3Q0Ax71-37" value="" style="shape=partialRectangle;connectable=0;fillColor=none;top=0;left=0;bottom=0;right=0;editable=1;overflow=hidden;fontSize=12;" parent="ri0Ij2RGUE_Cn3Q0Ax71-36" vertex="1">
          <mxGeometry width="20" height="30" as="geometry">
            <mxRectangle width="20" height="30" as="alternateBounds" />
          </mxGeometry>
        </mxCell>
        <mxCell id="ri0Ij2RGUE_Cn3Q0Ax71-38" value="USER PROFILE" style="shape=partialRectangle;connectable=0;fillColor=none;top=0;left=0;bottom=0;right=0;align=left;spacingLeft=6;overflow=hidden;fontSize=12;" parent="ri0Ij2RGUE_Cn3Q0Ax71-36" vertex="1">
          <mxGeometry x="20" width="120" height="30" as="geometry">
            <mxRectangle width="120" height="30" as="alternateBounds" />
          </mxGeometry>
        </mxCell>
        <mxCell id="wuoGvGYgDTkhkpgr6IQ_-27" style="edgeStyle=orthogonalEdgeStyle;rounded=0;orthogonalLoop=1;jettySize=auto;html=1;exitX=0.5;exitY=1;exitDx=0;exitDy=0;entryX=0.25;entryY=0;entryDx=0;entryDy=0;" parent="1" source="ri0Ij2RGUE_Cn3Q0Ax71-47" target="8tz2_ULPFMPT9zLTGULX-8" edge="1">
          <mxGeometry relative="1" as="geometry" />
        </mxCell>
        <mxCell id="CkKGtZv-pjo4ylyqwJWH-1" value="" style="group;fontSize=12;" parent="1" vertex="1" connectable="0">
          <mxGeometry x="80" y="664" width="150" height="40" as="geometry" />
        </mxCell>
        <mxCell id="CkKGtZv-pjo4ylyqwJWH-2" value="&lt;u&gt;&lt;b&gt;User ID&lt;/b&gt;&lt;/u&gt;" style="whiteSpace=wrap;html=1;align=center;fontSize=12;" parent="CkKGtZv-pjo4ylyqwJWH-1" vertex="1">
          <mxGeometry x="-20" width="80" height="40" as="geometry" />
        </mxCell>
        <mxCell id="CkKGtZv-pjo4ylyqwJWH-3" style="edgeStyle=orthogonalEdgeStyle;rounded=0;orthogonalLoop=1;jettySize=auto;html=1;exitX=0;exitY=0.5;exitDx=0;exitDy=0;entryX=1;entryY=0.5;entryDx=0;entryDy=0;fontSize=12;" parent="CkKGtZv-pjo4ylyqwJWH-1" source="CkKGtZv-pjo4ylyqwJWH-4" target="CkKGtZv-pjo4ylyqwJWH-2" edge="1">
          <mxGeometry relative="1" as="geometry" />
        </mxCell>
        <mxCell id="CkKGtZv-pjo4ylyqwJWH-4" value="&lt;u style=&quot;border-color: var(--border-color);&quot;&gt;&lt;b style=&quot;border-color: var(--border-color);&quot;&gt;Review ID&lt;/b&gt;&lt;/u&gt;" style="whiteSpace=wrap;html=1;align=center;fontSize=12;" parent="CkKGtZv-pjo4ylyqwJWH-1" vertex="1">
          <mxGeometry x="60" width="90" height="40" as="geometry" />
        </mxCell>
        <mxCell id="CkKGtZv-pjo4ylyqwJWH-21" style="edgeStyle=orthogonalEdgeStyle;rounded=0;orthogonalLoop=1;jettySize=auto;html=1;exitX=0.5;exitY=0;exitDx=0;exitDy=0;entryX=0.25;entryY=1;entryDx=0;entryDy=0;" parent="1" source="CkKGtZv-pjo4ylyqwJWH-2" target="ri0Ij2RGUE_Cn3Q0Ax71-14" edge="1">
          <mxGeometry relative="1" as="geometry" />
        </mxCell>
        <mxCell id="CkKGtZv-pjo4ylyqwJWH-22" style="edgeStyle=orthogonalEdgeStyle;rounded=0;orthogonalLoop=1;jettySize=auto;html=1;exitX=0.5;exitY=1;exitDx=0;exitDy=0;entryX=0.5;entryY=0;entryDx=0;entryDy=0;" parent="1" source="CkKGtZv-pjo4ylyqwJWH-4" target="OC3nGCjGOBW_ENE98FIM-19" edge="1">
          <mxGeometry relative="1" as="geometry" />
        </mxCell>
        <mxCell id="CkKGtZv-pjo4ylyqwJWH-23" style="edgeStyle=orthogonalEdgeStyle;rounded=0;orthogonalLoop=1;jettySize=auto;html=1;exitX=0.5;exitY=0;exitDx=0;exitDy=0;entryX=0.5;entryY=1;entryDx=0;entryDy=0;" parent="1" source="ri0Ij2RGUE_Cn3Q0Ax71-151" target="ri0Ij2RGUE_Cn3Q0Ax71-14" edge="1">
          <mxGeometry relative="1" as="geometry">
            <Array as="points">
              <mxPoint x="235" y="557" />
              <mxPoint x="186" y="557" />
            </Array>
          </mxGeometry>
        </mxCell>
        <mxCell id="CkKGtZv-pjo4ylyqwJWH-25" value="" style="group;fontSize=12;" parent="1" vertex="1" connectable="0">
          <mxGeometry x="490" y="704" width="150" height="40" as="geometry" />
        </mxCell>
        <mxCell id="CkKGtZv-pjo4ylyqwJWH-26" value="&lt;u&gt;&lt;b&gt;Partner ID&lt;/b&gt;&lt;/u&gt;" style="whiteSpace=wrap;html=1;align=center;fontSize=12;" parent="CkKGtZv-pjo4ylyqwJWH-25" vertex="1">
          <mxGeometry x="-20" width="80" height="40" as="geometry" />
        </mxCell>
        <mxCell id="CkKGtZv-pjo4ylyqwJWH-27" style="edgeStyle=orthogonalEdgeStyle;rounded=0;orthogonalLoop=1;jettySize=auto;html=1;exitX=0;exitY=0.5;exitDx=0;exitDy=0;entryX=1;entryY=0.5;entryDx=0;entryDy=0;fontSize=12;" parent="CkKGtZv-pjo4ylyqwJWH-25" source="CkKGtZv-pjo4ylyqwJWH-28" target="CkKGtZv-pjo4ylyqwJWH-26" edge="1">
          <mxGeometry relative="1" as="geometry" />
        </mxCell>
        <mxCell id="CkKGtZv-pjo4ylyqwJWH-28" value="&lt;u style=&quot;border-color: var(--border-color);&quot;&gt;&lt;b style=&quot;border-color: var(--border-color);&quot;&gt;Review ID&lt;/b&gt;&lt;/u&gt;" style="whiteSpace=wrap;html=1;align=center;fontSize=12;" parent="CkKGtZv-pjo4ylyqwJWH-25" vertex="1">
          <mxGeometry x="60" width="90" height="40" as="geometry" />
        </mxCell>
        <mxCell id="CkKGtZv-pjo4ylyqwJWH-30" style="edgeStyle=orthogonalEdgeStyle;rounded=0;orthogonalLoop=1;jettySize=auto;html=1;exitX=0.5;exitY=1;exitDx=0;exitDy=0;entryX=0.75;entryY=0;entryDx=0;entryDy=0;" parent="1" source="CkKGtZv-pjo4ylyqwJWH-28" target="OC3nGCjGOBW_ENE98FIM-19" edge="1">
          <mxGeometry relative="1" as="geometry" />
        </mxCell>
        <mxCell id="CkKGtZv-pjo4ylyqwJWH-32" style="edgeStyle=orthogonalEdgeStyle;rounded=0;orthogonalLoop=1;jettySize=auto;html=1;exitX=0.5;exitY=0;exitDx=0;exitDy=0;entryX=0.5;entryY=1;entryDx=0;entryDy=0;" parent="1" source="CkKGtZv-pjo4ylyqwJWH-26" target="8tz2_ULPFMPT9zLTGULX-8" edge="1">
          <mxGeometry relative="1" as="geometry" />
        </mxCell>
        <mxCell id="CkKGtZv-pjo4ylyqwJWH-34" value="" style="shape=table;startSize=0;container=1;collapsible=1;childLayout=tableLayout;fixedRows=1;rowLines=0;fontStyle=0;align=center;resizeLast=1;strokeColor=none;fillColor=none;collapsible=0;whiteSpace=wrap;html=1;fontSize=12;" parent="1" vertex="1">
          <mxGeometry x="490" y="680" width="180" height="24" as="geometry" />
        </mxCell>
        <mxCell id="CkKGtZv-pjo4ylyqwJWH-35" value="" style="shape=tableRow;horizontal=0;startSize=0;swimlaneHead=0;swimlaneBody=0;fillColor=none;collapsible=0;dropTarget=0;points=[[0,0.5],[1,0.5]];portConstraint=eastwest;top=0;left=0;right=0;bottom=0;fontSize=12;" parent="CkKGtZv-pjo4ylyqwJWH-34" vertex="1">
          <mxGeometry width="180" height="20" as="geometry" />
        </mxCell>
        <mxCell id="CkKGtZv-pjo4ylyqwJWH-36" value="" style="shape=partialRectangle;connectable=0;fillColor=none;top=0;left=0;bottom=0;right=0;editable=1;overflow=hidden;fontSize=12;" parent="CkKGtZv-pjo4ylyqwJWH-35" vertex="1">
          <mxGeometry width="20" height="20" as="geometry">
            <mxRectangle width="20" height="20" as="alternateBounds" />
          </mxGeometry>
        </mxCell>
        <mxCell id="CkKGtZv-pjo4ylyqwJWH-37" value="PARTNER LIKE REVIEW" style="shape=partialRectangle;connectable=0;fillColor=none;top=0;left=0;bottom=0;right=0;align=left;spacingLeft=6;overflow=hidden;fontSize=12;" parent="CkKGtZv-pjo4ylyqwJWH-35" vertex="1">
          <mxGeometry x="20" width="160" height="20" as="geometry">
            <mxRectangle width="160" height="20" as="alternateBounds" />
          </mxGeometry>
        </mxCell>
        <mxCell id="CkKGtZv-pjo4ylyqwJWH-11" value="" style="group" parent="1" vertex="1" connectable="0">
          <mxGeometry x="1400" y="160" width="281.64" height="64" as="geometry" />
        </mxCell>
        <mxCell id="AChMA_YjchhOcc8vBNKN-18" value="" style="group;fontSize=12;" parent="CkKGtZv-pjo4ylyqwJWH-11" vertex="1" connectable="0">
          <mxGeometry x="41.64" y="-4" width="240" height="40" as="geometry" />
        </mxCell>
        <mxCell id="AChMA_YjchhOcc8vBNKN-27" value="" style="group" parent="AChMA_YjchhOcc8vBNKN-18" vertex="1" connectable="0">
          <mxGeometry x="-21.748571428571427" y="-16" width="211.74857142857144" height="40" as="geometry" />
        </mxCell>
        <mxCell id="AChMA_YjchhOcc8vBNKN-19" value="&lt;u&gt;&lt;b&gt;User ID&lt;/b&gt;&lt;/u&gt;" style="whiteSpace=wrap;html=1;align=center;fontSize=12;" parent="AChMA_YjchhOcc8vBNKN-27" vertex="1">
          <mxGeometry width="86.99428571428571" height="40" as="geometry" />
        </mxCell>
        <mxCell id="AChMA_YjchhOcc8vBNKN-20" style="edgeStyle=orthogonalEdgeStyle;rounded=0;orthogonalLoop=1;jettySize=auto;html=1;exitX=0;exitY=0.5;exitDx=0;exitDy=0;entryX=1;entryY=0.5;entryDx=0;entryDy=0;fontSize=12;" parent="AChMA_YjchhOcc8vBNKN-27" source="AChMA_YjchhOcc8vBNKN-21" target="AChMA_YjchhOcc8vBNKN-19" edge="1">
          <mxGeometry relative="1" as="geometry" />
        </mxCell>
        <mxCell id="AChMA_YjchhOcc8vBNKN-21" value="&lt;u style=&quot;border-color: var(--border-color);&quot;&gt;&lt;b style=&quot;border-color: var(--border-color);&quot;&gt;Origanization ID&lt;/b&gt;&lt;/u&gt;" style="whiteSpace=wrap;html=1;align=center;fontSize=12;" parent="AChMA_YjchhOcc8vBNKN-27" vertex="1">
          <mxGeometry x="86.99857142857142" width="124.75" height="40" as="geometry" />
        </mxCell>
        <mxCell id="AChMA_YjchhOcc8vBNKN-25" style="edgeStyle=orthogonalEdgeStyle;rounded=0;orthogonalLoop=1;jettySize=auto;html=1;exitX=0.5;exitY=1;exitDx=0;exitDy=0;entryX=0.5;entryY=0;entryDx=0;entryDy=0;" parent="1" source="AChMA_YjchhOcc8vBNKN-21" target="ri0Ij2RGUE_Cn3Q0Ax71-90" edge="1">
          <mxGeometry relative="1" as="geometry" />
        </mxCell>
        <mxCell id="AChMA_YjchhOcc8vBNKN-14" value="" style="shape=table;startSize=0;container=1;collapsible=1;childLayout=tableLayout;fixedRows=1;rowLines=0;fontStyle=0;align=center;resizeLast=1;strokeColor=none;fillColor=none;collapsible=0;whiteSpace=wrap;html=1;fontSize=12;" parent="1" vertex="1">
          <mxGeometry x="240" y="16" width="210" height="24" as="geometry" />
        </mxCell>
        <mxCell id="AChMA_YjchhOcc8vBNKN-15" value="" style="shape=tableRow;horizontal=0;startSize=0;swimlaneHead=0;swimlaneBody=0;fillColor=none;collapsible=0;dropTarget=0;points=[[0,0.5],[1,0.5]];portConstraint=eastwest;top=0;left=0;right=0;bottom=0;fontSize=12;" parent="AChMA_YjchhOcc8vBNKN-14" vertex="1">
          <mxGeometry width="210" height="20" as="geometry" />
        </mxCell>
        <mxCell id="AChMA_YjchhOcc8vBNKN-16" value="" style="shape=partialRectangle;connectable=0;fillColor=none;top=0;left=0;bottom=0;right=0;editable=1;overflow=hidden;fontSize=12;" parent="AChMA_YjchhOcc8vBNKN-15" vertex="1">
          <mxGeometry width="20" height="20" as="geometry">
            <mxRectangle width="20" height="20" as="alternateBounds" />
          </mxGeometry>
        </mxCell>
        <mxCell id="AChMA_YjchhOcc8vBNKN-17" value="USER FOLLOW USER" style="shape=partialRectangle;connectable=0;fillColor=none;top=0;left=0;bottom=0;right=0;align=left;spacingLeft=6;overflow=hidden;fontSize=12;" parent="AChMA_YjchhOcc8vBNKN-15" vertex="1">
          <mxGeometry x="20" width="190" height="20" as="geometry">
            <mxRectangle width="190" height="20" as="alternateBounds" />
          </mxGeometry>
        </mxCell>
        <mxCell id="AChMA_YjchhOcc8vBNKN-28" value="" style="group" parent="1" vertex="1" connectable="0">
          <mxGeometry x="240.0014285714285" y="350" width="211.74857142857144" height="40" as="geometry" />
        </mxCell>
        <mxCell id="AChMA_YjchhOcc8vBNKN-37" style="edgeStyle=orthogonalEdgeStyle;rounded=0;orthogonalLoop=1;jettySize=auto;html=1;exitX=0.5;exitY=0;exitDx=0;exitDy=0;" parent="AChMA_YjchhOcc8vBNKN-28" source="AChMA_YjchhOcc8vBNKN-29" edge="1">
          <mxGeometry relative="1" as="geometry">
            <mxPoint x="-40.001428571428505" y="-170" as="targetPoint" />
            <Array as="points">
              <mxPoint x="43" y="-50" />
              <mxPoint x="-40" y="-50" />
            </Array>
          </mxGeometry>
        </mxCell>
        <mxCell id="AChMA_YjchhOcc8vBNKN-29" value="&lt;u&gt;&lt;b&gt;User ID&lt;/b&gt;&lt;/u&gt;" style="whiteSpace=wrap;html=1;align=center;fontSize=12;" parent="AChMA_YjchhOcc8vBNKN-28" vertex="1">
          <mxGeometry width="86.99428571428571" height="40" as="geometry" />
        </mxCell>
        <mxCell id="AChMA_YjchhOcc8vBNKN-30" style="edgeStyle=orthogonalEdgeStyle;rounded=0;orthogonalLoop=1;jettySize=auto;html=1;exitX=0;exitY=0.5;exitDx=0;exitDy=0;entryX=1;entryY=0.5;entryDx=0;entryDy=0;fontSize=12;" parent="AChMA_YjchhOcc8vBNKN-28" source="AChMA_YjchhOcc8vBNKN-31" target="AChMA_YjchhOcc8vBNKN-29" edge="1">
          <mxGeometry relative="1" as="geometry" />
        </mxCell>
        <mxCell id="AChMA_YjchhOcc8vBNKN-31" value="&lt;u style=&quot;border-color: var(--border-color);&quot;&gt;&lt;b style=&quot;border-color: var(--border-color);&quot;&gt;Patner ID&lt;/b&gt;&lt;/u&gt;" style="whiteSpace=wrap;html=1;align=center;fontSize=12;" parent="AChMA_YjchhOcc8vBNKN-28" vertex="1">
          <mxGeometry x="86.99857142857142" width="124.75" height="40" as="geometry" />
        </mxCell>
        <mxCell id="AChMA_YjchhOcc8vBNKN-36" style="edgeStyle=orthogonalEdgeStyle;rounded=0;orthogonalLoop=1;jettySize=auto;html=1;exitX=0.5;exitY=1;exitDx=0;exitDy=0;" parent="1" source="AChMA_YjchhOcc8vBNKN-31" target="ri0Ij2RGUE_Cn3Q0Ax71-44" edge="1">
          <mxGeometry relative="1" as="geometry" />
        </mxCell>
        <mxCell id="AChMA_YjchhOcc8vBNKN-81" style="edgeStyle=orthogonalEdgeStyle;rounded=0;orthogonalLoop=1;jettySize=auto;html=1;exitX=0.5;exitY=1;exitDx=0;exitDy=0;entryX=0.25;entryY=0;entryDx=0;entryDy=0;" parent="1" source="AChMA_YjchhOcc8vBNKN-53" target="ri0Ij2RGUE_Cn3Q0Ax71-14" edge="1">
          <mxGeometry relative="1" as="geometry">
            <Array as="points">
              <mxPoint x="202" y="90" />
              <mxPoint x="163" y="90" />
            </Array>
          </mxGeometry>
        </mxCell>
        <mxCell id="AChMA_YjchhOcc8vBNKN-53" value="&lt;u style=&quot;border-color: var(--border-color);&quot;&gt;&lt;b style=&quot;border-color: var(--border-color);&quot;&gt;USER ID SENDER&lt;/b&gt;&lt;/u&gt;" style="whiteSpace=wrap;html=1;align=center;fontSize=12;" parent="1" vertex="1">
          <mxGeometry x="139.99999999999994" y="40" width="124.75" height="40" as="geometry" />
        </mxCell>
        <mxCell id="AChMA_YjchhOcc8vBNKN-83" style="edgeStyle=orthogonalEdgeStyle;rounded=0;orthogonalLoop=1;jettySize=auto;html=1;exitX=0.5;exitY=1;exitDx=0;exitDy=0;entryX=0.5;entryY=0;entryDx=0;entryDy=0;" parent="1" source="AChMA_YjchhOcc8vBNKN-80" target="ri0Ij2RGUE_Cn3Q0Ax71-14" edge="1">
          <mxGeometry relative="1" as="geometry">
            <Array as="points">
              <mxPoint x="327" y="100" />
              <mxPoint x="186" y="100" />
            </Array>
          </mxGeometry>
        </mxCell>
        <mxCell id="AChMA_YjchhOcc8vBNKN-80" value="&lt;u style=&quot;border-color: var(--border-color);&quot;&gt;&lt;b style=&quot;border-color: var(--border-color);&quot;&gt;USER ID RECEIVER&lt;/b&gt;&lt;/u&gt;" style="whiteSpace=wrap;html=1;align=center;fontSize=12;" parent="1" vertex="1">
          <mxGeometry x="264.74999999999994" y="40" width="124.75" height="40" as="geometry" />
        </mxCell>
        <mxCell id="AChMA_YjchhOcc8vBNKN-85" style="edgeStyle=orthogonalEdgeStyle;rounded=0;orthogonalLoop=1;jettySize=auto;html=1;exitX=0.5;exitY=0;exitDx=0;exitDy=0;entryX=0.75;entryY=0;entryDx=0;entryDy=0;" parent="1" source="AChMA_YjchhOcc8vBNKN-19" target="ri0Ij2RGUE_Cn3Q0Ax71-14" edge="1">
          <mxGeometry relative="1" as="geometry">
            <Array as="points">
              <mxPoint x="1463" y="110" />
              <mxPoint x="209" y="110" />
            </Array>
          </mxGeometry>
        </mxCell>
        <mxCell id="ri0Ij2RGUE_Cn3Q0Ax71-155" value="" style="shape=table;startSize=0;container=1;collapsible=1;childLayout=tableLayout;fixedRows=1;rowLines=0;fontStyle=0;align=center;resizeLast=1;strokeColor=none;fillColor=none;collapsible=0;whiteSpace=wrap;html=1;fontSize=12;" parent="1" vertex="1">
          <mxGeometry x="912.5" y="910" width="105" height="24" as="geometry" />
        </mxCell>
        <mxCell id="ri0Ij2RGUE_Cn3Q0Ax71-156" value="" style="shape=tableRow;horizontal=0;startSize=0;swimlaneHead=0;swimlaneBody=0;fillColor=none;collapsible=0;dropTarget=0;points=[[0,0.5],[1,0.5]];portConstraint=eastwest;top=0;left=0;right=0;bottom=0;fontSize=12;" parent="ri0Ij2RGUE_Cn3Q0Ax71-155" vertex="1">
          <mxGeometry width="105" height="20" as="geometry" />
        </mxCell>
        <mxCell id="ri0Ij2RGUE_Cn3Q0Ax71-157" value="" style="shape=partialRectangle;connectable=0;fillColor=none;top=0;left=0;bottom=0;right=0;editable=1;overflow=hidden;fontSize=12;" parent="ri0Ij2RGUE_Cn3Q0Ax71-156" vertex="1">
          <mxGeometry width="20" height="20" as="geometry">
            <mxRectangle width="20" height="20" as="alternateBounds" />
          </mxGeometry>
        </mxCell>
        <mxCell id="ri0Ij2RGUE_Cn3Q0Ax71-158" value="REVIEW" style="shape=partialRectangle;connectable=0;fillColor=none;top=0;left=0;bottom=0;right=0;align=left;spacingLeft=6;overflow=hidden;fontSize=12;" parent="ri0Ij2RGUE_Cn3Q0Ax71-156" vertex="1">
          <mxGeometry x="20" width="85" height="20" as="geometry">
            <mxRectangle width="85" height="20" as="alternateBounds" />
          </mxGeometry>
        </mxCell>
        <mxCell id="tM6YXSf5DnzMM8M9z-y9-1" value="USER FOLLOW ORGANIZATION" style="shape=partialRectangle;connectable=0;fillColor=none;top=0;left=0;bottom=0;right=0;align=left;spacingLeft=6;overflow=hidden;fontSize=12;" vertex="1" parent="1">
          <mxGeometry x="1460" y="120" width="190" height="20" as="geometry">
            <mxRectangle width="190" height="20" as="alternateBounds" />
          </mxGeometry>
        </mxCell>
        <mxCell id="tM6YXSf5DnzMM8M9z-y9-2" value="" style="shape=table;startSize=0;container=1;collapsible=1;childLayout=tableLayout;fixedRows=1;rowLines=0;fontStyle=0;align=center;resizeLast=1;strokeColor=none;fillColor=none;collapsible=0;whiteSpace=wrap;html=1;fontSize=12;" vertex="1" parent="1">
          <mxGeometry x="90" y="640" width="180" height="24" as="geometry" />
        </mxCell>
        <mxCell id="tM6YXSf5DnzMM8M9z-y9-3" value="" style="shape=tableRow;horizontal=0;startSize=0;swimlaneHead=0;swimlaneBody=0;fillColor=none;collapsible=0;dropTarget=0;points=[[0,0.5],[1,0.5]];portConstraint=eastwest;top=0;left=0;right=0;bottom=0;fontSize=12;" vertex="1" parent="tM6YXSf5DnzMM8M9z-y9-2">
          <mxGeometry width="180" height="20" as="geometry" />
        </mxCell>
        <mxCell id="tM6YXSf5DnzMM8M9z-y9-4" value="" style="shape=partialRectangle;connectable=0;fillColor=none;top=0;left=0;bottom=0;right=0;editable=1;overflow=hidden;fontSize=12;" vertex="1" parent="tM6YXSf5DnzMM8M9z-y9-3">
          <mxGeometry width="20" height="20" as="geometry">
            <mxRectangle width="20" height="20" as="alternateBounds" />
          </mxGeometry>
        </mxCell>
        <mxCell id="tM6YXSf5DnzMM8M9z-y9-5" value="USER LIKE REVIEW" style="shape=partialRectangle;connectable=0;fillColor=none;top=0;left=0;bottom=0;right=0;align=left;spacingLeft=6;overflow=hidden;fontSize=12;" vertex="1" parent="tM6YXSf5DnzMM8M9z-y9-3">
          <mxGeometry x="20" width="160" height="20" as="geometry">
            <mxRectangle width="160" height="20" as="alternateBounds" />
          </mxGeometry>
        </mxCell>
      </root>
    </mxGraphModel>
  </diagram>
</mxfile>
